<?xml version="1.0" standalone="no"?><!DOCTYPE svg PUBLIC "-//W3C//DTD SVG 1.1//EN" "http://www.w3.org/Graphics/SVG/1.1/DTD/svg11.dtd"><svg t="1525010640761" class="icon" style="" viewBox="0 0 1025 1024" version="1.1" xmlns="http://www.w3.org/2000/svg" p-id="1112" xmlns:xlink="http://www.w3.org/1999/xlink" width="200.1953125" height="200"><defs><style type="text/css"></style></defs><path d="M938.722986 96.00832l-138.687786 0 0-63.99872c0-17.694366-14.294754-32.0096-32.0096-32.0096s-32.0096 14.294754-32.0096 32.0096l0 63.99872-191.99616 0 0-63.99872c0-17.694366-14.335713-32.0096-32.0096-32.0096s-32.0096 14.294754-32.0096 32.0096l0 63.99872-191.99616 0 0-63.99872c0-17.694366-14.335713-32.0096-32.0096-32.0096s-32.0096 14.294754-32.0096 32.0096l0 63.99872-138.646827 0c-47.144017 0-85.338453 38.173957-85.338453 85.317974l0 757.335253c0 47.144017 38.214916 85.338453 85.338453 85.338453l853.323094 0c47.144017 0 85.317974-38.214916 85.317974-85.338453l0-757.335253c0-47.144017-38.173957-85.317974-85.317974-85.317974zM960.042239 938.641067c0 11.775764-9.563969 21.339733-21.319254 21.339733l-853.323094 0c-11.775764 0-21.339733-9.563969-21.339733-21.339733l0-757.335253c0-11.734805 9.563969-21.319254 21.339733-21.319254l138.646827 0 0 63.99872c0 17.694366 14.335713 32.0096 32.0096 32.0096s32.0096-14.294754 32.0096-32.0096l0-63.99872 191.99616 0 0 63.99872c0 17.694366 14.335713 32.0096 32.0096 32.0096s32.0096-14.294754 32.0096-32.0096l0-63.99872 191.99616 0 0 63.99872c0 17.694366 14.294754 32.0096 32.0096 32.0096s32.0096-14.294754 32.0096-32.0096l0-63.99872 138.687786 0c11.734805 0 21.319254 9.563969 21.319254 21.319254l0 757.335253zM224.067199 383.99232l127.99744 0 0 96.00832-127.99744 0zM224.067199 543.99936l127.99744 0 0 96.00832-127.99744 0zM224.067199 703.98592l127.99744 0 0 96.00832-127.99744 0zM448.052479 703.98592l127.99744 0 0 96.00832-127.99744 0zM448.052479 543.99936l127.99744 0 0 96.00832-127.99744 0zM448.052479 383.99232l127.99744 0 0 96.00832-127.99744 0zM672.058239 703.98592l127.99744 0 0 96.00832-127.99744 0zM672.058239 543.99936l127.99744 0 0 96.00832-127.99744 0zM672.058239 383.99232l127.99744 0 0 96.00832-127.99744 0z" p-id="1113" fill="#515151"></path></svg>